<svg width="300" height="300" xmlns="http://www.w3.org/2000/svg">
 <g>
  <title>Layer 1</title>
  <path id="svg_2" d="m150,300c-82.87293,0 -150,-67.12707 -150,-150c0,-82.87293 67.12707,-150 150,-150c82.87293,0 150,67.12707 150,150c0,82.87293 -67.12707,150 -150,150z" opacity="undefined" stroke="#000" fill="#fff"/>
  <path fill="none" stroke="#000" opacity="NaN" d="m7.9528,104.13486l108.1807,0l33.42868,-103.13486l33.4287,103.13486l108.18068,0l-87.51986,63.5874l33.4304,102.88776l-87.51992,-63.58914l-87.5199,63.58914l33.4304,-102.88776l-87.5199,-63.5874l0.00002,0z" id="svg_3"/>
  <line id="svg_4" y2="168" x2="95" y1="104" x1="116" stroke="#000" fill="none"/>
  <line id="svg_5" y2="104.49872" x2="182.90488" y1="104" x1="116" stroke="#000" fill="none"/>
  <line id="svg_6" y2="168" x2="204" y1="104" x1="183" stroke="#000" fill="none"/>
  <line id="svg_7" y2="206.81234" x2="150" y1="168" x1="204" stroke="#000" fill="none"/>
  <line id="svg_8" y2="207.32648" x2="149.74293" y1="167.73779" x1="94.73008" stroke="#000" fill="none"/>
 </g>

</svg>